<svg id="Layer_1" data-name="Layer 1" xmlns="http://www.w3.org/2000/svg" viewBox="0 0 1024 1024"><defs><style>.cls-1{fill:#0064b1;}.cls-2{fill:#00a0e9;}.cls-3{fill:none;}</style></defs><title>symbol_1024</title><path class="cls-1" d="M406.64,778.18c0-54.65.81-109.3-.43-163.95a43.24,43.24,0,0,1,18.92-39.79c33.3-25.62,64.11-54.38,96.06-81.73,21-18,42.76-35.2,62.71-54.44a10.8,10.8,0,0,1,12.59-2.43c22.17,9.19,45,16.48,67.84,23.67A13.36,13.36,0,0,1,674.66,469c1.19,5.4-2.92,8.11-6.43,11.24q-39.42,34.55-78.55,69.3c-26.76,23.73-53.52,47.57-80.44,71.2a12.9,12.9,0,0,0-5.4,10.81c.32,13.35,0,26.65,0,39.95,0,2.38-1.52,5.89,1.46,7s4.48-2,6.32-3.68c22.44-19,44.82-38.21,67.2-57.35,10.48-9,21-18,31.46-27A12.36,12.36,0,0,1,624.55,588c21.62,8.76,43.24,17,64.87,25.84,10.81,4.43,11.51,11.78,2.65,19.46q-62.72,55-125.63,109.84c-18.92,16.22-37.84,33.3-56.6,49.68A13.15,13.15,0,0,0,504.92,804c0,42.82.38,85.63,0,128.44,0,8.33,2.81,9.25,9.84,9.19a425.57,425.57,0,0,0,396-281.1c80.76-221-29.3-466.19-249.31-550.52C454.1,30.78,222.9,124.74,126.89,328.53,25.57,544.06,118.14,800.91,333.67,902.24q8.82,4.15,17.83,7.9a227.57,227.57,0,0,0,21.9,8.16c5.73,1.73,8.65,4.11,8,10.81a140.51,140.51,0,0,0,0,24.27c.59,7.25-1.41,8-7.89,5.9A442.28,442.28,0,0,1,233,885.92c-127.31-100.82-189.21-233.1-183.8-395,7.19-214.12,162.44-395.54,372-438.3,192-39.14,389,49.89,489.28,221.36,144.82,247,37,565.88-228.07,673.24a454.42,454.42,0,0,1-266.5,23.24c-7.46-1.51-9.63-5-9.63-12.43C406.8,898.14,406.64,838.24,406.64,778.18Z"/><path class="cls-2" d="M403.78,340.32V143.39c0-12.17,2.7-15.19,15-16.22a493,493,0,0,1,69.13-3.73c43.25,2.21,85.9,9.3,124.72,29C670,181.6,705.74,228.53,715,292.69c6.81,47.3-.65,93.79-16.22,138.82a16.2,16.2,0,0,1-20.58,10.11c-.2-.06-.41-.14-.61-.22q-30.81-10-61.51-20.54c-11.68-4-15.19-12.05-10.82-23.94a199.94,199.94,0,0,0,10.82-95.25c-4.17-32.06-24.22-52.33-53.52-63.25-17-6.27-34.22-12.38-53-11.41-6.43.33-8.22,2.06-8.22,8.49.27,75.68,0,151.36.38,227.31a25.73,25.73,0,0,1-9.62,21.62c-23.79,21-47.09,42.55-70.71,63.74-3.19,2.86-6.27,7.62-11.84,4.65s-5.78-8.87-5.78-14.38Z"/><rect class="cls-3" width="1024" height="1024"/></svg>